<?xml version="1.0" standalone="no"?><!DOCTYPE svg PUBLIC "-//W3C//DTD SVG 1.1//EN" "http://www.w3.org/Graphics/SVG/1.1/DTD/svg11.dtd"><svg t="1555495495413" class="icon" style="" viewBox="0 0 1126 1024" version="1.1" xmlns="http://www.w3.org/2000/svg" p-id="1131" xmlns:xlink="http://www.w3.org/1999/xlink" width="219.921875" height="200"><defs><style type="text/css"></style></defs><path d="M1088.5888 197.632l-128.8448 128.9728-7.296 7.4496-4.3264 4.5312a17.6128 17.6128 0 0 1-10.5472 3.2 18.304 18.304 0 0 1-11.5968-4.2752l-2.432-2.3808-7.296-7.168-111.5648-112-5.9392-5.8368-4.608-4.5312a25.5744 25.5744 0 0 1-4.3008-14.08c0-4.5312 1.6128-8.5248 4.3264-11.7248l1.8688-2.1248 7.04-6.912 129.3824-129.536C918.6816 14.3616 865.7408 1.5872 837.632 3.712c-46.1824 3.4816-93.7216 18.6368-142.592 67.84-1.92 2.1248-4.096 4.2496-5.9648 6.1184-66.4576 71.2704-79.6928 167.0144-52.6848 254.7968 1.8944 3.712 3.5328 8.2432 4.352 12.2368 2.944 14.6176-1.1008 27.136-10.8288 35.9168l-102.3744 96.7936a2342.0672 2342.0672 0 0 0-36.4544-36.1728c-5.4016-5.2992-16.2048-8.7552-25.6768-3.1744l-15.9232 9.5744c-61.312-61.44-87.2448-86.1952-95.616-115.968-8.6528-31.1296-0.8192-72.6272 7.2704-88.064 6.7584-12.2112 27.8272-23.6544 45.6704-24.9856l23.2192 23.424a13.5168 13.5168 0 0 0 19.2 0l83.456-83.5328a13.6448 13.6448 0 0 0 0-19.4048L397.8752 4.2496a13.5168 13.5168 0 0 0-19.1744 0l-83.456 83.5328a13.6448 13.6448 0 0 0 0 19.4048l8.9088 9.0368c0 13.056-1.8944 33.2544-12.6976 44.16-16.7424 16.7424-49.9712-2.6624-71.5776 12.4928-21.3504 14.8992-48.3584 38.8352-65.6384 55.8592C137.216 245.76 71.8592 313.344 25.088 427.136c-46.72 113.8432-10.8032 219.4432 14.592 247.1168 13.5168 14.6176 38.0928 29.5168 33.7664 1.8432-4.3264-27.904-11.3408-124.7232 20.7872-164.352 32.1536-39.6288 74.5728-72.0896 129.664-74.752 52.9408-2.6624 83.456 15.1552 152.064 83.7888l-7.552 13.824c-4.864 9.0368-2.1504 20.48 3.2512 25.8048 0 0 4.0448 4.2496 32.6912 32.9728L141.824 841.2672c-43.776 38.0416-41.344 107.7248-0.8192 148.9664 41.0624 40.4224 111.0272 43.3408 149.0944-0.5376l246.8864-262.2464c132.6336 139.0848 252.032 285.6448 252.032 285.6448a13.5168 13.5168 0 0 0 19.2 0l134.7584-134.8608a13.6448 13.6448 0 0 0 0-19.4048s-149.0944-121.5488-289.024-255.872l95.8976-101.8624c8.9088-9.8304 21.3504-13.824 35.9168-10.9056 4.0704 0.7936 8.3968 2.6624 12.16 4.5312 87.5264 27.136 183.1424 13.824 253.9264-52.6592 2.1504-1.8688 4.0448-3.9936 6.1952-6.144 48.896-48.9216 64.0256-96.7936 67.5328-143.0784 2.7136-28.1856-9.4464-80.5888-36.992-95.232z" p-id="1132"></path></svg>